<?xml version="1.0" standalone="no"?>
<!DOCTYPE svg PUBLIC "-//W3C//DTD SVG 20010904//EN"
 "http://www.w3.org/TR/2001/REC-SVG-20010904/DTD/svg10.dtd">
<svg version="1.0" xmlns="http://www.w3.org/2000/svg"
 width="300.000000pt" height="300.000000pt" viewBox="0 0 300.000000 300.000000"
 preserveAspectRatio="xMidYMid meet">
<metadata>
Created by potrace 1.10, written by Peter Selinger 2001-2011
</metadata>
<g transform="translate(0.000000,300.000000) scale(0.100000,-0.100000)"
fill="#000000" stroke="none">
<path d="M994 1500 c0 -146 2 -205 3 -132 2 72 2 192 0 265 -1 72 -3 13 -3
-133z"/>
<path d="M560 1665 c-74 -34 -120 -103 -120 -181 0 -180 210 -267 336 -140 91
90 79 227 -24 300 -51 36 -137 45 -192 21z m62 -50 c-3 -26 -9 -35 -23 -35
-23 0 -24 4 -2 41 23 38 30 37 25 -6z m63 -6 c15 -28 15 -29 -10 -29 -22 0
-25 4 -25 36 0 40 12 38 35 -7z m-128 -2 c-10 -22 -57 -45 -57 -28 0 7 64 61
67 57 2 -1 -3 -14 -10 -29z m197 -6 c19 -21 19 -21 -2 -21 -13 0 -26 11 -35
30 -14 27 -14 29 1 21 10 -5 26 -19 36 -30z m-218 -67 c-3 -9 -6 -20 -6 -25 0
-5 -13 -9 -30 -9 -16 0 -30 4 -30 9 0 27 15 41 42 41 23 0 29 -4 24 -16z m84
-9 c0 -21 -5 -25 -30 -25 -16 0 -30 4 -30 9 0 25 14 41 36 41 19 0 24 -5 24
-25z m90 0 c0 -21 -5 -25 -30 -25 -25 0 -30 4 -30 25 0 21 5 25 30 25 25 0 30
-4 30 -25z m92 0 c5 -23 2 -25 -28 -25 -30 0 -34 3 -34 25 0 21 5 25 29 25 23
0 30 -5 33 -25z m-272 -69 c0 -8 3 -21 6 -30 5 -12 -1 -16 -24 -16 -29 0 -42
14 -42 46 0 9 11 14 30 14 19 0 30 -5 30 -14z m90 -16 c0 -25 -4 -30 -24 -30
-23 0 -36 16 -36 46 0 9 11 14 30 14 27 0 30 -3 30 -30z m90 0 c0 -27 -3 -30
-30 -30 -27 0 -30 3 -30 30 0 27 3 30 30 30 27 0 30 -3 30 -30z m100 26 c0 -3
-4 -16 -10 -30 -7 -19 -17 -26 -35 -26 -21 0 -25 5 -25 30 0 28 3 30 35 30 19
0 35 -2 35 -4z m-253 -113 c7 -15 11 -28 10 -30 -2 -1 -19 11 -38 27 -33 29
-34 29 -9 30 18 0 29 -8 37 -27z m65 -3 c5 -36 -5 -39 -26 -8 -21 29 -20 38 3
38 13 0 20 -9 23 -30z m61 0 c-9 -16 -21 -30 -25 -30 -4 0 -8 14 -8 30 0 26 4
30 26 30 l25 0 -18 -30z m71 9 c-10 -11 -27 -25 -36 -30 -16 -9 -16 -8 0 21 9
17 25 30 36 30 19 0 19 0 0 -21z"/>
<path d="M1700 1500 c0 -118 2 -140 15 -140 8 0 15 7 15 17 0 15 1 15 18 0 30
-27 94 -22 126 9 21 21 26 36 26 74 0 42 -4 52 -31 74 -35 30 -83 34 -117 10
-22 -15 -22 -15 -22 40 0 43 -3 56 -15 56 -13 0 -15 -22 -15 -140z m158 4 c12
-14 22 -31 22 -39 0 -30 -24 -64 -53 -76 -82 -34 -137 98 -57 138 31 16 59 8
88 -23z"/>
<path d="M1210 1627 c-1 -1 -2 -62 -3 -135 -2 -123 -1 -132 17 -132 16 0 18 5
12 40 l-6 40 50 0 c47 0 51 -2 76 -40 16 -24 34 -40 46 -40 18 0 16 4 -11 39
-17 21 -31 42 -31 46 0 4 11 16 26 27 21 17 25 27 22 66 -4 63 -33 83 -127 88
-39 2 -71 3 -71 1z m148 -43 c27 -18 30 -69 5 -96 -12 -13 -31 -18 -75 -18
l-58 0 0 65 0 65 53 0 c31 0 61 -6 75 -16z"/>
<path d="M1503 1548 c-12 -6 -29 -26 -39 -46 -20 -44 -7 -101 31 -126 44 -29
135 -16 135 19 0 19 -5 19 -35 -1 -31 -20 -79 -11 -100 19 -8 12 -15 25 -15
29 0 5 38 8 85 8 94 0 99 4 70 60 -25 48 -79 64 -132 38z m91 -29 c46 -36 35
-49 -44 -49 -38 0 -70 3 -70 6 0 16 24 46 43 54 33 13 42 12 71 -11z"/>
<path d="M1969 1531 c-23 -23 -29 -38 -29 -71 0 -33 6 -48 29 -71 65 -64 171
-20 171 71 0 33 -6 48 -29 71 -23 23 -38 29 -71 29 -33 0 -48 -6 -71 -29z
m115 -12 c20 -16 26 -29 26 -59 0 -30 -6 -43 -26 -59 -15 -12 -34 -21 -44 -21
-10 0 -29 9 -44 21 -20 16 -26 29 -26 59 0 30 6 43 26 59 15 12 34 21 44 21
10 0 29 -9 44 -21z"/>
<path d="M2190 1460 c0 -82 3 -100 15 -100 12 0 15 13 15 58 0 72 17 106 53
110 15 2 27 9 27 18 0 19 -30 18 -58 -2 -20 -14 -22 -14 -22 0 0 9 -7 16 -15
16 -12 0 -15 -18 -15 -100z"/>
<path d="M2340 1460 c0 -82 3 -100 15 -100 12 0 15 14 15 64 0 78 20 109 70
109 46 0 60 -23 60 -105 0 -56 3 -68 16 -68 14 0 16 12 12 81 -3 70 -6 83 -27
100 -28 23 -79 25 -109 3 -20 -14 -22 -14 -22 0 0 9 -7 16 -15 16 -12 0 -15
-18 -15 -100z"/>
</g>
</svg>
